HIERARCHY
ROOT Hips
{
	OFFSET 0.00000 0.00000 0.00000
	CHANNELS 6 Xposition Yposition Zposition Yrotation Zrotation Xrotation 
	JOINT Lumbar
	{
		OFFSET 0 0 0
		CHANNELS 3 Zrotation Xrotation Yrotation
		JOINT Neck
		{
			OFFSET 0.00 0.2701 0.00
			CHANNELS 3 Zrotation Xrotation Yrotation
			End Site
			{
				OFFSET 0.00 0.1379 0.00
			}
		}
		JOINT RightShoulder
		{
			OFFSET 0.0119 0.2289 0.1181
			CHANNELS 3 Zrotation Xrotation Yrotation
			JOINT RightElbow
			{
				OFFSET 0.00 -0.1475 0.00
				CHANNELS 2 Zrotation Yrotation
				JOINT RightWrist
				{
					OFFSET 0.00 -0.1605 0.00
					CHANNELS 2 Zrotation Xrotation
					End Site
					{
						OFFSET 0.0040 -0.1068 0.0006
					}
				}
			}
		}
		JOINT LeftShoulder
		{
			OFFSET 0.0119 0.2289 -0.1181
			CHANNELS 3 Zrotation Xrotation Yrotation
			JOINT LeftElbow
			{
				OFFSET 0.00 -0.1475 0.00
				CHANNELS 2 Zrotation Yrotation
				JOINT LeftWrist
				{
					OFFSET 0.00 -0.1605 0.00
					CHANNELS 2 Zrotation Xrotation
					End Site
					{
						OFFSET 0.0040 -0.1068 -0.0006
					}
				}
			}
		}
	}
	JOINT RightHip
	{
		OFFSET 0.0316 -0.0424 0.0458
		CHANNELS 3 Zrotation Xrotation Yrotation
		JOINT RightKnee
		{
			OFFSET 0.00 -0.2438 0.00
			CHANNELS 1 Zrotation
			JOINT RightAnkle
			{
				OFFSET 0.00 -0.2449 0.00
				CHANNELS 3 Zrotation Xrotation Yrotation
				End Site
				{
					OFFSET 0.1237 -0.0542 0.0051
				}
			}
		}
	}
	JOINT LeftHip
	{
		OFFSET 0.0316 -0.0424 -0.0458
		CHANNELS 3 Zrotation Xrotation Yrotation
		JOINT LeftKnee
		{
			OFFSET 0.00 -0.2438 0.00
			CHANNELS 1 Zrotation
			JOINT LeftAnkle
			{
				OFFSET 0.00 -0.2449 0.00
				CHANNELS 3 Zrotation Xrotation Yrotation
				End Site
				{
					OFFSET 0.1237 -0.0542 -0.0051
				}
			}
		}
	}
}
MOTION
Frames: 13
Frame Time: 0.02
-0.8952 -0.32066 -0.34555 744.18435 0.03684 -9.17755 14.82528 1.50108 -7.2501 -23.32679 24.80834 -0.83079 2.55611 -6.19973 28.78664 121.74278 100.7339 16.70057 -0.03278 15.76551 5.22572 -29.59846 107.92836 -60.4878 29.85155 6.11475 77.09439 -12.88258 -6.43764 -64.18476 -11.09155 -4.31244 -3.15669 81.44184 1.05973 5.78491 -68.31833 -12.08232 5.03852 3.62763
-0.89515 -0.3207 -0.34555 744.21075 0.07171 -9.17714 14.73775 1.50314 -7.22785 -23.29206 24.86051 -0.83079 2.25403 -6.27934 28.5641 121.78339 100.59019 17.16938 -0.14169 15.63288 5.04535 -29.66799 108.03392 -59.08933 31.69005 6.18241 77.06111 -12.91677 -6.4732 -64.20047 -11.08893 -4.31128 -3.15536 81.40615 1.04691 5.78668 -68.33196 -12.06948 5.03659 3.62695
-0.89516 -0.32076 -0.34555 744.23927 0.09418 -9.178 14.62741 1.50264 -7.2069 -23.12997 24.956 -0.83079 2.03096 -6.33855 28.21498 121.76254 100.44453 17.74866 -0.26503 15.56817 4.78009 -29.72186 108.11738 -57.57918 33.82052 6.24671 77.04272 -12.94897 -6.50843 -64.2088 -11.08311 -4.30959 -3.15336 81.38448 1.01794 5.76803 -68.33529 -12.05419 5.03499 3.62704
-0.89514 -0.32081 -0.34555 744.26482 0.12159 -9.17793 14.5331 1.5028 -7.18907 -23.03546 25.02698 -0.83079 1.78581 -6.40552 27.89971 121.75347 100.29173 18.30836 -0.38405 15.48569 4.56703 -29.78415 108.19786 -56.23585 35.72072 6.30405 77.01779 -12.98018 -6.54363 -64.22022 -11.07724 -4.30801 -3.15153 81.35707 0.99758 5.75789 -68.34347 -12.04002 5.03365 3.62697
-0.89512 -0.32088 -0.34555 744.29835 0.15283 -9.1791 14.41611 1.50457 -7.15608 -22.90298 25.11712 -0.83079 1.48554 -6.47756 27.67906 121.81045 100.17235 18.74407 -0.49442 15.35454 4.2945 -29.8408 108.33353 -54.41688 38.01906 6.39601 76.9907 -13.02069 -6.58252 -64.23335 -11.07701 -4.30679 -3.15011 81.32601 0.97251 5.75119 -68.35175 -12.02556 5.03068 3.62613
-0.89511 -0.32092 -0.34554 744.31613 0.1737 -9.17815 14.3392 1.50277 -7.15473 -22.81826 25.1784 -0.83079 1.31805 -6.53485 27.23547 121.71817 99.98193 19.4587 -0.62571 15.33787 4.12581 -29.90679 108.35044 -53.54194 39.57634 6.41662 76.97127 -13.04028 -6.61153 -64.24094 -11.06485 -4.3049 -3.14782 81.30539 0.95316 5.73242 -68.35713 -12.01127 5.0311 3.62704
-0.89513 -0.3209 -0.34551 744.28754 0.15763 -9.17022 14.39458 1.48925 -7.24083 -22.89542 25.14578 -0.83079 1.49263 -6.55454 26.18169 121.20302 99.61109 20.95949 -0.81357 15.62676 4.27241 -29.98692 108.02555 -55.48749 38.84324 6.22727 76.98001 -13.01003 -6.62622 -64.23498 -11.01668 -4.29964 -3.14222 81.32136 0.95363 5.68502 -68.35602 -11.9976 5.04133 3.6329
-0.89515 -0.32086 -0.34548 744.24345 0.13319 -9.16024 14.48837 1.47268 -7.35852 -23.0245 25.0835 -0.83079 1.79865 -6.56052 24.91416 120.54476 99.16715 22.72842 -1.02117 16.02652 4.52541 -30.07969 107.58496 -58.35588 37.38292 5.96861 76.99445 -12.95765 -6.62878 -64.22359 -10.95732 -4.29399 -3.13595 81.34575 0.96024 5.62614 -68.35235 -11.98432 5.05485 3.64044
-0.89518 -0.32083 -0.34545 744.20809 0.12001 -9.15185 14.5538 1.45924 -7.46153 -23.1306 25.03721 -0.83079 2.0473 -6.57431 23.76025 119.96856 98.74568 24.34687 -1.21855 16.37069 4.72493 -30.17667 107.21007 -60.67564 36.37273 5.75097 76.99938 -12.91004 -6.62758 -64.21469 -10.90575 -4.28966 -3.13073 81.35901 0.96402 5.57276 -68.35048 -11.97117 5.0665 3.64699
-0.8952 -0.32078 -0.34541 744.16587 0.07582 -9.14097 14.6635 1.43856 -7.56629 -23.23112 24.98152 -0.83079 2.28845 -6.58108 22.52783 119.31743 98.36563 26.09219 -1.42305 16.73933 4.94288 -30.23118 106.78017 -63.52328 34.88134 5.49384 77.03324 -12.88336 -6.66364 -64.20561 -10.84293 -4.28072 -3.12243 81.40277 0.96774 5.51776 -68.34584 -11.95655 5.07974 3.65449
-0.89522 -0.32078 -0.34538 744.134 0.0933 -9.13448 14.69163 1.43203 -7.67445 -23.35545 24.93818 -0.83079 2.57581 -6.59902 21.41542 118.79033 97.88682 27.63281 -1.61557 17.08241 5.14905 -30.37726 106.43624 -65.50935 34.19853 5.30148 77.00897 -12.80951 -6.62162 -64.19554 -10.80055 -4.28101 -3.12024 81.38582 0.97286 5.46334 -68.34613 -11.94521 5.09046 3.66043
-0.89524 -0.32094 -0.34535 744.13665 0.29259 -9.1433 14.47475 1.46728 -7.78807 -23.54883 24.93233 -0.83079 2.95416 -6.65527 20.63885 118.63121 97.11174 28.56431 -1.78415 17.32679 5.29494 -30.77338 106.37073 -64.73936 36.07504 5.31471 76.81447 -12.59659 -6.34566 -64.18555 -10.8207 -4.30925 -3.13658 81.19069 0.98408 5.4167 -68.36375 -11.9421 5.09319 3.66144
-0.89526 -0.32114 -0.34533 744.1499 0.55253 -9.15613 14.17656 1.51653 -7.90332 -23.76218 24.94021 -0.83079 3.3745 -6.72256 19.99956 118.60393 96.24747 29.27551 -1.93742 17.54119 5.4258 -31.26072 106.39381 -63.0971 38.76276 5.39408 76.56279 -12.33952 -5.99526 -64.17457 -10.86123 -4.34638 -3.15882 80.93572 0.99603 5.37078 -68.38593 -11.9424 5.0933 3.66086
